DataType=double
version=3
OpenSimVersion=4.3-2021-08-27-4bc7ad9
endheader
time	ground_force_r_vx	ground_force_r_vy	ground_force_r_vz	ground_force_r_px	ground_force_r_py	ground_force_r_pz	ground_force_l_vx	ground_force_l_vy	ground_force_l_vz	ground_force_l_px	ground_force_l_py	ground_force_l_pz	ground_torque_r_x	ground_torque_r_y	ground_torque_r_z	ground_torque_l_x	ground_torque_l_y	ground_torque_l_z
0.868	-1.074084912747058	1.013021794619461	0	0	0	0	0	0	0	0	0	0	0	0	0.003982901602535754	0	0	0
0.8707136995336288	-11.80787832641114	13.02267278073411	0	0	0	0	0	0	0	0	0	0	0	0	0.1284588952890934	0	0	0
0.8734273990672574	-68.52448315729954	74.36962234885567	0	0	0	0	0	0	0	0	0	0	0	0	0.9038882122751398	0	0	0
0.8761410986008862	-201.5632715287787	236.147332510319	0	0	0	0	0	0	0	0	0	0	0	0	3.767693842589742	0	0	0
0.8788547981345149	-349.6463235474033	606.7955416738072	0	0	0	0	0	0	0	0	0	0	0	0	12.96938772883432	0	0	0
0.8815684976681436	-511.9809036785277	919.5955794057966	0	0	0	0	0	0	0	0	0	0	0	0	21.45883231635517	0	0	0
0.8842821972017724	-511.0401353814252	1140.350392854044	0	0	0	0	0	0	0	0	0	0	0	0	29.48340818100607	0	0	0
0.8869958967354011	-373.4111611798883	1324.405912099953	0	0	0	0	0	0	0	0	0	0	0	0	38.70853307267537	0	0	0
0.8897095962690299	-216.907382455885	1484.807281781441	0	0	0	0	0	0	0	0	0	0	0	0	49.14481624176915	0	0	0
0.8924232958026586	-60.8768671484291	1612.588810436474	0	0	0	0	0	0	0	0	0	0	0	0	59.72224071678472	0	0	0
0.8951369953362873	-0.177905572182164	1692.280761979817	0	0	0	0	0	0	0	0	0	0	0	0	68.78035324796097	0	0	0
0.8978506948699161	3.685246166136584	1722.593302345362	0	0	0	0	0	0	0	0	0	0	0	0	76.2756032508025	0	0	0
0.9005643944035447	-95.3095928362695	1719.015982568265	0	0	0	0	0	0	0	0	0	0	0	0	82.26025781272767	0	0	0
0.9032780939371735	-197.3681638907009	1684.991709917233	0	0	0	0	0	0	0	0	0	0	0	0	87.54549534483313	0	0	0
0.9059917934708023	-311.5356246343908	1643.974280685082	0	0	0	0	0	0	0	0	0	0	0	0	93.78329791743069	0	0	0
0.9087054930044309	-368.7722027020034	1599.791357570399	0	0	0	0	0	0	0	0	0	0	0	0	102.1884256550722	0	0	0
0.9114191925380597	-395.6626103393692	1565.29102667089	0	0	0	0	0	0	0	0	0	0	0	0	113.3879026065897	0	0	0
0.9141328920716885	-367.1731338614734	1546.706670815362	0	0	0	0	0	0	0	0	0	0	0	0	127.4456296112846	0	0	0
0.9168465916053171	-345.5314329678286	1539.203127681843	0	0	0	0	0	0	0	0	0	0	0	0	143.4844023515919	0	0	0
0.9195602911389459	-296.5797523646364	1549.767438862014	0	0	0	0	0	0	0	0	0	0	0	0	161.6364847460223	0	0	0
0.9222739906725747	-274.0925440407117	1569.942518379287	0	0	0	0	0	0	0	0	0	0	0	0	180.9473985686126	0	0	0
0.9249876902062034	-235.200844505689	1595.030765068817	0	0	0	0	0	0	0	0	0	0	0	0	200.9796890353316	0	0	0
0.9277013897398321	-218.1673843163944	1619.356314989967	0	0	0	0	0	0	0	0	0	0	0	0	220.4103362675378	0	0	0
0.9304150892734608	-174.4327480841634	1643.574136255718	0	0	0	0	0	0	0	0	0	0	0	0	240.3921289593257	0	0	0
0.9331287888070896	-141.5363909046856	1670.337767298546	0	0	0	0	0	0	0	0	0	0	0	0	261.8743022278229	0	0	0
0.9358424883407183	-105.6816511884819	1674.504973287394	0	0	0	0	0	0	0	0	0	0	0	0	280.1129372350585	0	0	0
0.938556187874347	-81.81102824325059	1694.26175311044	0	0	0	0	0	0	0	0	0	0	0	0	290.3876615207008	0	0	0
0.9412698874079758	-32.39879893774722	1692.302561006526	0	0	0	0	0	0	0	0	0	0	0	0	295.212793328437	0	0	0
0.9439835869416044	-7.93370215204887	1685.536258979483	0	0	0	0	0	0	0	0	0	0	0	0	298.9582678744126	0	0	0
0.9466972864752332	30.08012954373746	1679.493369058405	0	0	0	0	0	0	0	0	0	0	0	0	302.7705864073191	0	0	0
0.949410986008862	61.22434260139467	1667.379253477682	0	0	0	0	0	0	0	0	0	0	0	0	305.6757509169144	0	0	0
0.9521246855424906	100.2697053232499	1649.986377224136	0	0	0	0	0	0	0	0	0	0	0	0	308.5151816069376	0	0	0
0.9548383850761194	129.0166882959406	1624.778525727557	0	0	0	0	0	0	0	0	0	0	0	0	309.9901576849276	0	0	0
0.9575520846097482	164.683693444591	1596.541094582022	0	0	0	0	0	0	0	0	0	0	0	0	310.9265928429534	0	0	0
0.9602657841433768	196.9940944291982	1559.375990158622	0	0	0	0	0	0	0	0	0	0	0	0	309.9689233077995	0	0	0
0.9629794836770056	228.1275329823892	1517.20501542995	0	0	0	0	0	0	0	0	0	0	0	0	306.9279350624869	0	0	0
0.9656931832106344	252.7226593573774	1477.463880891832	0	0	0	0	0	0	0	0	0	0	0	0	299.9753606364243	0	0	0
0.9684068827442631	284.4207730974077	1415.936953329333	0	0	0	0	0	0	0	0	0	0	0	0	289.4127234752034	0	0	0
0.9711205822778918	305.6149907724612	1355.761384320315	0	0	0	0	0	0	0	0	0	0	0	0	278.8527636115527	0	0	0
0.9738342818115205	328.7883340424591	1288.883590977921	0	0	0	0	0	0	0	0	0	0	0	0	267.2628801393139	0	0	0
0.9765479813451493	346.3472480463433	1216.51334788337	0	0	0	0	0	0	0	0	0	0	0	0	254.5113711691583	0	0	0
0.979261680878778	363.0815493028672	1135.319554889088	0	0	0	0	0	0	0	0	0	0	0	0	240.2300360481579	0	0	0
0.9819753804124067	374.8337166250563	1044.522968386795	0	0	0	0	0	0	0	0	0	0	0	0	224.0477027737161	0	0	0
0.9846890799460355	384.9288780182835	950.5583658255475	0	0	0	0	0	0	0	0	0	0	0	0	207.4378091860062	0	0	0
0.9874027794796641	390.8436036283495	860.3489684798102	0	0	0	0	0	0	0	0	0	0	0	0	191.5198078977455	0	0	0
0.9901164790132929	386.995230418255	761.9342735905814	0	0	0	0	0	0	0	0	0	0	0	0	173.5665009802468	0	0	0
0.9928301785469217	369.8479197974422	641.0290356843459	0	0	0	0	0	0	0	0	0	0	0	0	150.6249131959318	0	0	0
0.9955438780805503	359.9862030677949	533.9755851066737	0	0	0	0	0	0	0	0	0	0	0	0	131.258511253151	0	0	0
0.9982575776141791	360.3899006506852	488.5937367451128	0	0	0	0	0	0	0	0	0	0	0	0	124.0913132149722	0	0	0
1.000971277147808	271.0147285610813	402.0752694607945	0	0	0	0	0	0	0	0	0	0	0	0	99.46878479273553	0	0	0
1.003684976681437	50.55081059167154	140.4440125009351	0	0	0	0	0	0	0	0	0	0	0	0	29.07596134590849	0	0	0
1.006398676215065	5.315724293145658e-14	-5.048490771095706e-14	0	0	0	0	0	0	0	0	0	0	0	0	-5.849243650989895e-16	0	0	0
1.009112375748694	0	0	0	0	0	0	0	0	0	0	0	0	0	0	0	0	0	0
1.011826075282323	0	0	0	0	0	0	0	0	0	0	0	0	0	0	0	0	0	0
1.014539774815951	0	0	0	0	0	0	0	0	0	0	0	0	0	0	0	0	0	0
1.01725347434958	0	0	0	0	0	0	0	0	0	0	0	0	0	0	0	0	0	0
1.019967173883209	0	0	0	0	0	0	0	0	0	0	0	0	0	0	0	0	0	0
1.022680873416838	0	0	0	0	0	0	0	0	0	0	0	0	0	0	0	0	0	0
1.025394572950467	0	0	0	0	0	0	0	0	0	0	0	0	0	0	0	0	0	0
1.028108272484095	0	0	0	0	0	0	0	0	0	0	0	0	0	0	0	0	0	0
1.030821972017724	0	0	0	0	0	0	0	0	0	0	0	0	0	0	0	0	0	0
1.033535671551353	0	0	0	0	0	0	0	0	0	0	0	0	0	0	0	0	0	0
1.036249371084981	0	0	0	0	0	0	0	0	0	0	0	0	0	0	0	0	0	0
